<svg xmlns="http://www.w3.org/2000/svg" viewBox="0 0 800 600" preserveAspectRatio="xMidYMid slice"><defs><linearGradient id="g" x1="0" y1="0" x2="1" y2="1"><stop offset="0" stop-color="#FBD3D7"/><stop offset="1" stop-color="#F4A6AE"/></linearGradient></defs><rect width="800" height="600" fill="url(#g)"/><ellipse cx="400" cy="470" rx="260" ry="30" fill="#3B1E24" opacity=".14"/><path d="M130 400 C150 250 280 190 400 190 C520 190 650 250 670 400 C610 360 560 350 520 380 C470 340 330 340 280 380 C240 350 190 360 130 400Z" fill="#E6B567"/><path d="M215 300 Q240.0 250 265 300" fill="none" stroke="#C98A3C" stroke-width="10" stroke-linecap="round"/><path d="M285 300 Q307.5 250 330 300" fill="none" stroke="#C98A3C" stroke-width="10" stroke-linecap="round"/><path d="M345 300 Q372.5 250 400 300" fill="none" stroke="#C98A3C" stroke-width="10" stroke-linecap="round"/><path d="M400 300 Q427.5 250 455 300" fill="none" stroke="#C98A3C" stroke-width="10" stroke-linecap="round"/><path d="M470 300 Q495.0 250 520 300" fill="none" stroke="#C98A3C" stroke-width="10" stroke-linecap="round"/><path d="M535 300 Q562.5 250 590 300" fill="none" stroke="#C98A3C" stroke-width="10" stroke-linecap="round"/><path d="M220 270 Q400 170 580 270" fill="none" stroke="#fff" stroke-opacity=".35" stroke-width="10" stroke-linecap="round"/></svg>